STARTFONT 2.1
FONT -gbdfed-3x6-Medium-R-Normal--6-80-96-96-M-3-ISO10646-1
SIZE 8 96 96
FONTBOUNDINGBOX 3 7 0 -1
STARTPROPERTIES 19
POINT_SIZE 80
PIXEL_SIZE 6
RESOLUTION_X 96
RESOLUTION_Y 96
FONT_ASCENT 5
FONT_DESCENT 1
AVERAGE_WIDTH 3
SPACING "M"
_GBDFED_INFO "Edited with gbdfed 1.6."
FOUNDRY "gbdfed"
FAMILY_NAME "3x6"
WEIGHT_NAME "Medium"
SLANT "R"
SETWIDTH_NAME "Normal"
ADD_STYLE_NAME ""
CHARSET_REGISTRY "ISO10646"
CHARSET_ENCODING "1"
DEFAULT_CHAR 0
FACE_NAME "3x6"
ENDPROPERTIES
CHARS 95
STARTCHAR char32
ENCODING 32
SWIDTH 281 0
DWIDTH 4 0
BBX 0 0 0 0
BITMAP
ENDCHAR
STARTCHAR uni0021
ENCODING 33
SWIDTH 281 0
DWIDTH 4 0
BBX 1 5 1 0
BITMAP
80
80
80
00
80
ENDCHAR
STARTCHAR uni0022
ENCODING 34
SWIDTH 281 0
DWIDTH 4 0
BBX 3 2 0 4
BITMAP
A0
A0
ENDCHAR
STARTCHAR uni0023
ENCODING 35
SWIDTH 281 0
DWIDTH 4 0
BBX 3 5 0 -1
BITMAP
A0
E0
A0
E0
A0
ENDCHAR
STARTCHAR uni0024
ENCODING 36
SWIDTH 281 0
DWIDTH 4 0
BBX 3 7 0 -1
BITMAP
40
E0
80
E0
20
E0
40
ENDCHAR
STARTCHAR uni0025
ENCODING 37
SWIDTH 281 0
DWIDTH 4 0
BBX 3 5 0 0
BITMAP
A0
20
40
80
A0
ENDCHAR
STARTCHAR uni0026
ENCODING 38
SWIDTH 281 0
DWIDTH 4 0
BBX 3 6 0 -1
BITMAP
40
A0
40
A0
E0
20
ENDCHAR
STARTCHAR uni0027
ENCODING 39
SWIDTH 281 0
DWIDTH 4 0
BBX 1 2 1 3
BITMAP
80
80
ENDCHAR
STARTCHAR uni0028
ENCODING 40
SWIDTH 281 0
DWIDTH 4 0
BBX 2 5 0 0
BITMAP
40
80
80
80
40
ENDCHAR
STARTCHAR uni0029
ENCODING 41
SWIDTH 281 0
DWIDTH 4 0
BBX 3 5 0 0
BITMAP
40
20
20
20
40
ENDCHAR
STARTCHAR uni002A
ENCODING 42
SWIDTH 281 0
DWIDTH 4 0
BBX 3 5 0 0
BITMAP
A0
40
E0
40
A0
ENDCHAR
STARTCHAR uni002B
ENCODING 43
SWIDTH 281 0
DWIDTH 4 0
BBX 3 3 0 1
BITMAP
40
E0
40
ENDCHAR
STARTCHAR uni002C
ENCODING 44
SWIDTH 281 0
DWIDTH 4 0
BBX 2 2 0 -1
BITMAP
40
80
ENDCHAR
STARTCHAR uni002D
ENCODING 45
SWIDTH 281 0
DWIDTH 4 0
BBX 3 1 0 2
BITMAP
E0
ENDCHAR
STARTCHAR uni002E
ENCODING 46
SWIDTH 281 0
DWIDTH 4 0
BBX 2 1 0 0
BITMAP
40
ENDCHAR
STARTCHAR uni002F
ENCODING 47
SWIDTH 281 0
DWIDTH 4 0
BBX 3 5 0 0
BITMAP
20
20
40
80
80
ENDCHAR
STARTCHAR uni0030
ENCODING 48
SWIDTH 281 0
DWIDTH 4 0
BBX 3 5 0 0
BITMAP
40
A0
E0
A0
40
ENDCHAR
STARTCHAR uni0031
ENCODING 49
SWIDTH 281 0
DWIDTH 4 0
BBX 2 5 0 0
BITMAP
40
C0
40
40
40
ENDCHAR
STARTCHAR uni0032
ENCODING 50
SWIDTH 281 0
DWIDTH 4 0
BBX 3 5 0 0
BITMAP
C0
20
40
80
E0
ENDCHAR
STARTCHAR uni0033
ENCODING 51
SWIDTH 281 0
DWIDTH 4 0
BBX 3 5 0 0
BITMAP
C0
20
40
20
C0
ENDCHAR
STARTCHAR uni0034
ENCODING 52
SWIDTH 281 0
DWIDTH 4 0
BBX 3 5 0 0
BITMAP
20
40
A0
E0
20
ENDCHAR
STARTCHAR uni0035
ENCODING 53
SWIDTH 281 0
DWIDTH 4 0
BBX 3 5 0 0
BITMAP
E0
80
C0
20
C0
ENDCHAR
STARTCHAR uni0036
ENCODING 54
SWIDTH 281 0
DWIDTH 4 0
BBX 3 5 0 0
BITMAP
40
80
C0
A0
40
ENDCHAR
STARTCHAR uni0037
ENCODING 55
SWIDTH 281 0
DWIDTH 4 0
BBX 3 5 0 0
BITMAP
E0
20
20
40
40
ENDCHAR
STARTCHAR uni0038
ENCODING 56
SWIDTH 281 0
DWIDTH 4 0
BBX 3 5 0 0
BITMAP
40
A0
40
A0
40
ENDCHAR
STARTCHAR uni0039
ENCODING 57
SWIDTH 281 0
DWIDTH 4 0
BBX 3 5 0 0
BITMAP
40
A0
60
20
40
ENDCHAR
STARTCHAR uni003A
ENCODING 58
SWIDTH 281 0
DWIDTH 4 0
BBX 2 3 0 0
BITMAP
40
00
40
ENDCHAR
STARTCHAR uni003B
ENCODING 59
SWIDTH 281 0
DWIDTH 4 0
BBX 2 4 0 -1
BITMAP
40
00
40
80
ENDCHAR
STARTCHAR uni003C
ENCODING 60
SWIDTH 281 0
DWIDTH 4 0
BBX 3 5 0 0
BITMAP
20
40
80
40
20
ENDCHAR
STARTCHAR uni003D
ENCODING 61
SWIDTH 281 0
DWIDTH 4 0
BBX 3 3 0 1
BITMAP
E0
00
E0
ENDCHAR
STARTCHAR uni003E
ENCODING 62
SWIDTH 281 0
DWIDTH 4 0
BBX 3 5 0 0
BITMAP
80
40
20
40
80
ENDCHAR
STARTCHAR uni003F
ENCODING 63
SWIDTH 281 0
DWIDTH 4 0
BBX 3 5 0 0
BITMAP
E0
20
40
00
40
ENDCHAR
STARTCHAR uni0040
ENCODING 64
SWIDTH 281 0
DWIDTH 4 0
BBX 3 6 0 -1
BITMAP
40
A0
80
E0
E0
40
ENDCHAR
STARTCHAR uni0041
ENCODING 65
SWIDTH 281 0
DWIDTH 4 0
BBX 3 5 0 0
BITMAP
40
A0
A0
E0
A0
ENDCHAR
STARTCHAR uni0042
ENCODING 66
SWIDTH 281 0
DWIDTH 4 0
BBX 3 5 0 0
BITMAP
C0
A0
C0
A0
C0
ENDCHAR
STARTCHAR uni0043
ENCODING 67
SWIDTH 281 0
DWIDTH 4 0
BBX 3 5 0 0
BITMAP
60
80
80
80
60
ENDCHAR
STARTCHAR uni0044
ENCODING 68
SWIDTH 281 0
DWIDTH 4 0
BBX 3 5 0 0
BITMAP
C0
A0
A0
A0
C0
ENDCHAR
STARTCHAR uni0045
ENCODING 69
SWIDTH 281 0
DWIDTH 4 0
BBX 3 5 0 0
BITMAP
E0
80
C0
80
E0
ENDCHAR
STARTCHAR uni0046
ENCODING 70
SWIDTH 281 0
DWIDTH 4 0
BBX 3 5 0 0
BITMAP
E0
80
C0
80
80
ENDCHAR
STARTCHAR uni0047
ENCODING 71
SWIDTH 281 0
DWIDTH 4 0
BBX 3 5 0 0
BITMAP
60
80
80
A0
60
ENDCHAR
STARTCHAR uni0048
ENCODING 72
SWIDTH 281 0
DWIDTH 4 0
BBX 3 5 0 0
BITMAP
A0
A0
E0
A0
A0
ENDCHAR
STARTCHAR uni0049
ENCODING 73
SWIDTH 281 0
DWIDTH 4 0
BBX 3 5 0 0
BITMAP
E0
40
40
40
E0
ENDCHAR
STARTCHAR uni004A
ENCODING 74
SWIDTH 281 0
DWIDTH 4 0
BBX 3 5 0 0
BITMAP
E0
40
40
40
C0
ENDCHAR
STARTCHAR uni004B
ENCODING 75
SWIDTH 281 0
DWIDTH 4 0
BBX 3 5 0 0
BITMAP
A0
A0
C0
A0
A0
ENDCHAR
STARTCHAR uni004C
ENCODING 76
SWIDTH 281 0
DWIDTH 4 0
BBX 3 5 0 0
BITMAP
80
80
80
80
E0
ENDCHAR
STARTCHAR uni004D
ENCODING 77
SWIDTH 281 0
DWIDTH 4 0
BBX 3 5 0 0
BITMAP
A0
E0
E0
A0
A0
ENDCHAR
STARTCHAR uni004E
ENCODING 78
SWIDTH 281 0
DWIDTH 4 0
BBX 3 5 0 0
BITMAP
A0
E0
E0
E0
A0
ENDCHAR
STARTCHAR uni004F
ENCODING 79
SWIDTH 281 0
DWIDTH 4 0
BBX 3 5 0 0
BITMAP
40
A0
A0
A0
40
ENDCHAR
STARTCHAR uni0050
ENCODING 80
SWIDTH 281 0
DWIDTH 4 0
BBX 3 5 0 0
BITMAP
C0
A0
C0
80
80
ENDCHAR
STARTCHAR uni0051
ENCODING 81
SWIDTH 281 0
DWIDTH 4 0
BBX 3 6 0 -1
BITMAP
40
A0
A0
A0
40
20
ENDCHAR
STARTCHAR uni0052
ENCODING 82
SWIDTH 281 0
DWIDTH 4 0
BBX 3 5 0 0
BITMAP
C0
A0
C0
A0
A0
ENDCHAR
STARTCHAR uni0053
ENCODING 83
SWIDTH 281 0
DWIDTH 4 0
BBX 3 5 0 0
BITMAP
60
80
40
20
C0
ENDCHAR
STARTCHAR uni0054
ENCODING 84
SWIDTH 281 0
DWIDTH 4 0
BBX 3 5 0 0
BITMAP
E0
40
40
40
40
ENDCHAR
STARTCHAR uni0055
ENCODING 85
SWIDTH 281 0
DWIDTH 4 0
BBX 3 5 0 0
BITMAP
A0
A0
A0
A0
E0
ENDCHAR
STARTCHAR uni0056
ENCODING 86
SWIDTH 281 0
DWIDTH 4 0
BBX 3 5 0 0
BITMAP
A0
A0
A0
A0
40
ENDCHAR
STARTCHAR uni0057
ENCODING 87
SWIDTH 281 0
DWIDTH 4 0
BBX 3 5 0 0
BITMAP
A0
A0
E0
E0
A0
ENDCHAR
STARTCHAR uni0058
ENCODING 88
SWIDTH 281 0
DWIDTH 4 0
BBX 3 5 0 0
BITMAP
A0
A0
40
A0
A0
ENDCHAR
STARTCHAR uni0059
ENCODING 89
SWIDTH 281 0
DWIDTH 4 0
BBX 3 5 0 0
BITMAP
A0
A0
40
40
40
ENDCHAR
STARTCHAR uni005A
ENCODING 90
SWIDTH 281 0
DWIDTH 4 0
BBX 3 5 0 0
BITMAP
E0
20
40
80
E0
ENDCHAR
STARTCHAR uni005B
ENCODING 91
SWIDTH 281 0
DWIDTH 4 0
BBX 2 5 0 0
BITMAP
C0
80
80
80
C0
ENDCHAR
STARTCHAR uni005C
ENCODING 92
SWIDTH 281 0
DWIDTH 4 0
BBX 3 5 0 0
BITMAP
80
80
40
20
20
ENDCHAR
STARTCHAR uni005D
ENCODING 93
SWIDTH 281 0
DWIDTH 4 0
BBX 2 5 1 0
BITMAP
C0
40
40
40
C0
ENDCHAR
STARTCHAR uni005E
ENCODING 94
SWIDTH 281 0
DWIDTH 4 0
BBX 3 2 0 3
BITMAP
40
A0
ENDCHAR
STARTCHAR uni005F
ENCODING 95
SWIDTH 281 0
DWIDTH 4 0
BBX 3 1 0 0
BITMAP
E0
ENDCHAR
STARTCHAR uni0060
ENCODING 96
SWIDTH 281 0
DWIDTH 4 0
BBX 2 2 1 3
BITMAP
80
40
ENDCHAR
STARTCHAR uni0061
ENCODING 97
SWIDTH 281 0
DWIDTH 4 0
BBX 3 3 0 0
BITMAP
20
E0
E0
ENDCHAR
STARTCHAR uni0062
ENCODING 98
SWIDTH 281 0
DWIDTH 4 0
BBX 3 5 0 0
BITMAP
80
80
80
E0
E0
ENDCHAR
STARTCHAR uni0063
ENCODING 99
SWIDTH 281 0
DWIDTH 4 0
BBX 3 3 0 0
BITMAP
60
80
60
ENDCHAR
STARTCHAR uni0064
ENCODING 100
SWIDTH 281 0
DWIDTH 4 0
BBX 3 5 0 0
BITMAP
20
20
20
E0
E0
ENDCHAR
STARTCHAR uni0065
ENCODING 101
SWIDTH 281 0
DWIDTH 4 0
BBX 3 3 0 0
BITMAP
E0
E0
80
ENDCHAR
STARTCHAR uni0066
ENCODING 102
SWIDTH 281 0
DWIDTH 4 0
BBX 3 5 0 0
BITMAP
20
40
E0
40
40
ENDCHAR
STARTCHAR uni0067
ENCODING 103
SWIDTH 281 0
DWIDTH 4 0
BBX 3 4 0 -1
BITMAP
E0
E0
20
C0
ENDCHAR
STARTCHAR uni0068
ENCODING 104
SWIDTH 281 0
DWIDTH 4 0
BBX 3 5 0 0
BITMAP
80
80
80
E0
A0
ENDCHAR
STARTCHAR uni0069
ENCODING 105
SWIDTH 281 0
DWIDTH 4 0
BBX 1 5 1 0
BITMAP
80
00
80
80
80
ENDCHAR
STARTCHAR uni006A
ENCODING 106
SWIDTH 281 0
DWIDTH 4 0
BBX 2 6 0 -1
BITMAP
40
00
40
40
40
C0
ENDCHAR
STARTCHAR uni006B
ENCODING 107
SWIDTH 281 0
DWIDTH 4 0
BBX 3 5 0 0
BITMAP
80
80
A0
C0
A0
ENDCHAR
STARTCHAR uni006C
ENCODING 108
SWIDTH 281 0
DWIDTH 4 0
BBX 2 5 0 0
BITMAP
80
40
40
40
40
ENDCHAR
STARTCHAR uni006D
ENCODING 109
SWIDTH 281 0
DWIDTH 4 0
BBX 3 3 0 0
BITMAP
E0
E0
A0
ENDCHAR
STARTCHAR uni006E
ENCODING 110
SWIDTH 281 0
DWIDTH 4 0
BBX 3 3 0 0
BITMAP
C0
A0
A0
ENDCHAR
STARTCHAR uni006F
ENCODING 111
SWIDTH 281 0
DWIDTH 4 0
BBX 3 3 0 0
BITMAP
40
A0
40
ENDCHAR
STARTCHAR uni0070
ENCODING 112
SWIDTH 281 0
DWIDTH 4 0
BBX 3 3 0 -1
BITMAP
E0
E0
80
ENDCHAR
STARTCHAR uni0071
ENCODING 113
SWIDTH 281 0
DWIDTH 4 0
BBX 3 3 0 -1
BITMAP
E0
E0
20
ENDCHAR
STARTCHAR uni0072
ENCODING 114
SWIDTH 281 0
DWIDTH 4 0
BBX 3 3 0 0
BITMAP
40
A0
80
ENDCHAR
STARTCHAR uni0073
ENCODING 115
SWIDTH 281 0
DWIDTH 4 0
BBX 3 3 0 0
BITMAP
60
40
C0
ENDCHAR
STARTCHAR uni0074
ENCODING 116
SWIDTH 281 0
DWIDTH 4 0
BBX 3 5 0 0
BITMAP
40
E0
40
40
60
ENDCHAR
STARTCHAR uni0075
ENCODING 117
SWIDTH 281 0
DWIDTH 4 0
BBX 3 3 0 0
BITMAP
A0
A0
E0
ENDCHAR
STARTCHAR uni0076
ENCODING 118
SWIDTH 281 0
DWIDTH 4 0
BBX 3 3 0 0
BITMAP
A0
A0
40
ENDCHAR
STARTCHAR uni0077
ENCODING 119
SWIDTH 281 0
DWIDTH 4 0
BBX 3 3 0 0
BITMAP
A0
E0
E0
ENDCHAR
STARTCHAR uni0078
ENCODING 120
SWIDTH 281 0
DWIDTH 4 0
BBX 3 3 0 0
BITMAP
A0
40
A0
ENDCHAR
STARTCHAR uni0079
ENCODING 121
SWIDTH 281 0
DWIDTH 4 0
BBX 3 4 0 -1
BITMAP
A0
E0
20
40
ENDCHAR
STARTCHAR uni007A
ENCODING 122
SWIDTH 281 0
DWIDTH 4 0
BBX 3 3 0 0
BITMAP
C0
40
60
ENDCHAR
STARTCHAR uni007B
ENCODING 123
SWIDTH 281 0
DWIDTH 4 0
BBX 3 5 0 0
BITMAP
60
40
80
40
60
ENDCHAR
STARTCHAR uni007C
ENCODING 124
SWIDTH 281 0
DWIDTH 4 0
BBX 2 5 0 0
BITMAP
40
40
40
40
40
ENDCHAR
STARTCHAR uni007D
ENCODING 125
SWIDTH 281 0
DWIDTH 4 0
BBX 3 5 0 0
BITMAP
C0
40
20
40
C0
ENDCHAR
STARTCHAR uni007E
ENCODING 126
SWIDTH 281 0
DWIDTH 4 0
BBX 3 2 0 1
BITMAP
C0
60
ENDCHAR
ENDFONT
